# This file uses centimeters as units for non-parametric coordinates.

v -11.264925 -0.000000 11.761188
v 11.264925 -0.000000 11.761188
v -11.264925 0.000000 -11.761188
v 11.264925 0.000000 -11.761188
vt 0.000000 0.000000
vt 0.957805 0.000000
vt 0.000000 1.000000
vt 0.957805 1.000000
vn 0.000000 1.000000 0.000000
vn 0.000000 1.000000 0.000000
vn 0.000000 1.000000 0.000000
vn 0.000000 1.000000 0.000000
vn 0.000000 1.000000 0.000000
vn 0.000000 1.000000 0.000000
f 1/1/1 4/4/2 3/3/3
f 4/4/4 1/1/5 2/2/6
